<svg width="229" height="76" viewBox="0 0 229 76" fill="none" xmlns="http://www.w3.org/2000/svg">
<mask id="mask0_29_125" style="mask-type:alpha" maskUnits="userSpaceOnUse" x="16" y="13" width="18" height="50">
<mask id="mask1_29_125" style="mask-type:alpha" maskUnits="userSpaceOnUse" x="0" y="13" width="34" height="50">
<path fill-rule="evenodd" clip-rule="evenodd" d="M25.3382 30.4515C26.4718 28.666 27.1336 26.515 27.1336 24.2C27.1336 18.0144 22.4093 13 16.5816 13C10.754 13 6.02968 18.0144 6.02968 24.2C6.02968 26.515 6.69142 28.666 7.82507 30.4515C3.12678 33.5586 0 39.0917 0 45.4C0 55.1202 7.42385 63 16.5816 63C25.7394 63 33.1633 55.1202 33.1633 45.4C33.1633 39.0917 30.0365 33.5586 25.3382 30.4515Z" fill="#285FFE"/>
</mask>
<g mask="url(#mask1_29_125)">
<rect x="16.5816" y="-5" width="30.9021" height="72" fill="#285FFE"/>
</g>
</mask>
<g mask="url(#mask0_29_125)">
<rect x="-2.28882e-05" y="9" width="88.1841" height="39.6" fill="white"/>
</g>
<path d="M61.7988 42.76C61.7988 46.344 59.2068 49 54.5028 49H43.1748V26.216H53.8628C58.5668 26.216 61.1588 28.648 61.1588 32.232C61.1588 34.76 59.8788 36.648 57.3508 37.32C60.2948 37.928 61.7988 40.04 61.7988 42.76ZM58.2468 42.504C58.2468 40.264 56.8388 38.696 54.1188 38.696H46.7268V46.312H54.1188C56.8388 46.312 58.2468 44.744 58.2468 42.504ZM57.6068 32.488C57.6068 30.248 56.1988 28.904 53.4788 28.904H46.7268V36.072H53.4788C56.1988 36.072 57.6068 34.728 57.6068 32.488ZM69.637 49.32C65.797 49.32 63.717 47.4 63.717 44.328C63.717 41.864 65.221 39.912 69.317 39.56L72.517 39.304C74.469 39.112 75.045 38.664 75.045 37.608C75.045 35.72 73.957 34.6 71.557 34.6C69.317 34.6 68.101 35.56 67.941 37.608H64.613C64.613 34.28 66.661 32.168 71.525 32.168C76.357 32.168 78.437 34.28 78.437 37.608V44.776C78.437 47.016 78.629 48.456 78.949 49H75.909C75.397 48.36 75.205 47.688 75.205 46.152C74.309 48.264 72.485 49.32 69.637 49.32ZM70.565 46.984C73.477 46.984 75.045 44.712 75.045 41.992V40.584C74.693 41.032 73.797 41.288 72.517 41.384L70.405 41.576C68.037 41.768 67.109 42.76 67.109 44.104C67.109 45.8 68.133 46.984 70.565 46.984ZM88.1663 49.32C82.9823 49.32 80.9983 47.048 80.9983 43.88H84.2623C84.4223 45.768 85.2543 47.048 88.1983 47.048C91.0783 47.048 91.9423 45.8 91.9423 44.392C91.9423 43.08 90.9823 42.408 89.4143 42.184L86.3743 41.736C82.9183 41.256 81.4463 40.04 81.4463 37.288C81.4463 34.44 83.2383 32.168 88.1663 32.168C93.0943 32.168 94.8863 34.44 94.8863 37.352H91.6223C91.4623 35.816 90.9503 34.44 88.1343 34.44C85.7343 34.44 84.8383 35.432 84.8383 37.032C84.8383 38.376 85.6063 38.856 86.8863 39.048L89.9263 39.496C93.2863 39.976 95.3343 41.192 95.3343 44.2C95.3343 47.048 93.3503 49.32 88.1663 49.32ZM105.408 49.32C100.16 49.32 97.2483 45.992 97.2483 40.744C97.2483 35.656 100 32.168 105.216 32.168C110.432 32.168 113.184 35.72 113.184 40.456C113.184 40.776 113.152 41.064 113.12 41.384H100.64C100.736 45.288 102.592 46.984 105.408 46.984C107.744 46.984 109.216 45.768 109.728 43.88H112.832C112.096 47.24 109.696 49.32 105.408 49.32ZM105.216 34.504C102.656 34.504 100.992 36.04 100.64 39.144H109.792C109.44 36.04 107.776 34.504 105.216 34.504ZM122.292 49.32C117.844 49.32 115.092 46.152 115.092 40.744C115.092 35.336 117.844 32.168 122.292 32.168C124.948 32.168 126.772 33.256 127.7 35.304V26.216H131.092V49H127.86V45.96C126.932 48.072 125.172 49.32 122.292 49.32ZM123.092 46.728C125.812 46.728 127.7 44.904 127.7 40.744C127.7 36.616 125.812 34.76 123.092 34.76C120.34 34.76 118.484 36.616 118.484 40.744C118.484 44.904 120.34 46.728 123.092 46.728ZM141.815 49.32C136.567 49.32 133.655 45.992 133.655 40.744C133.655 35.656 136.407 32.168 141.623 32.168C146.839 32.168 149.591 35.72 149.591 40.456C149.591 40.776 149.559 41.064 149.527 41.384H137.047C137.143 45.288 138.999 46.984 141.815 46.984C144.151 46.984 145.623 45.768 146.135 43.88H149.239C148.503 47.24 146.103 49.32 141.815 49.32ZM141.623 34.504C139.063 34.504 137.399 36.04 137.047 39.144H146.199C145.847 36.04 144.183 34.504 141.623 34.504ZM160.258 49H156.162L149.89 32.488H153.41L158.21 45.992L162.978 32.488H166.53L160.258 49ZM175.002 49.32C169.754 49.32 166.842 45.992 166.842 40.744C166.842 35.656 169.594 32.168 174.81 32.168C180.026 32.168 182.778 35.72 182.778 40.456C182.778 40.776 182.746 41.064 182.714 41.384H170.234C170.33 45.288 172.186 46.984 175.002 46.984C177.338 46.984 178.81 45.768 179.322 43.88H182.426C181.69 47.24 179.29 49.32 175.002 49.32ZM174.81 34.504C172.25 34.504 170.586 36.04 170.234 39.144H179.386C179.034 36.04 177.37 34.504 174.81 34.504ZM199.406 49H196.014V38.696C196.014 36.2 195.118 34.92 192.782 34.92C190.318 34.92 188.718 36.776 188.718 39.784V49H185.326V32.488H188.558V35.368C189.454 33.448 191.054 32.168 193.806 32.168C197.582 32.168 199.406 34.088 199.406 38.088V49ZM208.375 49.16C204.919 49.16 203.703 48.136 203.703 44.776V34.92H201.015V32.488H203.703V27.496H207.095V32.488H210.903V34.92H207.095V44.872C207.095 46.312 207.639 46.728 209.143 46.728L210.903 46.696V49C210.231 49.064 209.047 49.16 208.375 49.16ZM219.854 49.32C214.67 49.32 212.686 47.048 212.686 43.88H215.95C216.11 45.768 216.942 47.048 219.886 47.048C222.766 47.048 223.63 45.8 223.63 44.392C223.63 43.08 222.67 42.408 221.102 42.184L218.062 41.736C214.606 41.256 213.134 40.04 213.134 37.288C213.134 34.44 214.926 32.168 219.854 32.168C224.782 32.168 226.574 34.44 226.574 37.352H223.31C223.15 35.816 222.638 34.44 219.822 34.44C217.422 34.44 216.526 35.432 216.526 37.032C216.526 38.376 217.294 38.856 218.574 39.048L221.614 39.496C224.974 39.976 227.022 41.192 227.022 44.2C227.022 47.048 225.038 49.32 219.854 49.32Z" fill="white"/>
</svg>
